<svg width="133" height="15" viewBox="0 0 133 15" fill="none" xmlns="http://www.w3.org/2000/svg">
<path d="M11.4172 4.04959C11.2535 3.30578 10.8648 2.62397 10.3328 2.08678C9.55526 1.30165 8.53222 0.888429 7.42732 0.888429H0V6.05372L3.06914 9.17355H7.42732C8.53222 9.17355 9.55526 8.73967 10.3328 7.95455C10.4555 7.83058 10.5578 7.70661 10.6602 7.58264C11.2331 6.8595 11.54 5.97107 11.54 5.02066C11.54 4.69008 11.4991 4.3595 11.4172 4.04959ZM7.69332 5.76446C7.67286 5.80578 7.63193 5.84711 7.59101 5.86777C7.36594 6.09504 7.07949 6.21901 6.75211 6.21901H5.38123L3.47836 4.29752V3.82231H6.75211C7.07949 3.82231 7.36594 3.94628 7.59101 4.17355C7.7547 4.31818 7.857 4.52479 7.91839 4.7314C7.93885 4.83471 7.95931 4.91736 7.95931 5.02066C7.95931 5.28926 7.857 5.55785 7.69332 5.76446ZM0 15H3.47836V11.1777L0 7.66529V15Z" fill="white"/>
<path d="M18.6641 15H22.1629V13.7603L18.6641 10.2479V15ZM24.9865 0.805785L20.4237 5.43388L15.8405 0.805785H10.9298L18.6641 8.63636L21.6718 11.6736L22.1629 12.1488V8.65702L29.9176 0.805785H24.9865Z" fill="white"/>
<path d="M40.9321 9.66942C40.9935 9.66942 41.0549 9.66942 41.1163 9.66942H41.1777C42.303 9.64876 43.3465 9.19421 44.1445 8.38843C44.9425 7.58264 45.3926 6.52893 45.4335 5.39256C45.454 5.24793 45.454 5.10331 45.454 4.95868C45.454 4.6281 45.4131 4.29752 45.3517 3.96694C45.1675 3.2438 44.7992 2.56198 44.2673 2.02479C43.6739 1.44628 42.9578 1.05372 42.1598 0.888429C41.8938 0.847106 41.6278 0.805785 41.3618 0.805785H31.9702V5.99174L35.4486 9.50413L40.8298 14.9174L40.9117 15H46.3134L40.9321 9.66942ZM40.6866 6.15702H37.3515L35.6941 4.48347H41.771C41.8119 4.54545 41.8324 4.60744 41.8324 4.66942C41.8529 4.71074 41.8529 4.77273 41.8733 4.81405C41.8733 4.83471 41.8733 4.85537 41.8733 4.87603C41.8733 4.89669 41.8733 4.93802 41.8733 4.95868C41.8733 5.12397 41.8324 5.28926 41.771 5.45455C41.7506 5.49587 41.7096 5.55785 41.6892 5.59917C41.6892 5.61983 41.6687 5.61983 41.6687 5.6405C41.6483 5.66116 41.6278 5.68182 41.6278 5.70248H41.6073C41.6073 5.72314 41.6073 5.72314 41.5869 5.7438C41.5869 5.7438 41.5869 5.7438 41.5664 5.7438C41.5664 5.76446 41.546 5.78512 41.5255 5.80578C41.4027 5.92975 41.2595 6.03306 41.0754 6.09504C41.0344 6.1157 40.973 6.1157 40.9117 6.13636C40.8503 6.15702 40.7684 6.15702 40.6866 6.15702ZM31.9702 15H35.4486V11.1157L31.9702 7.60331V15Z" fill="white"/>
<path d="M51.8333 11.4876V10.4959L48.355 6.98347V15H60.0791V11.4876H51.8333ZM60.0791 9.69008V6.15702H54.0227L52.2016 4.31818H60.0791V0.805785H48.355V5.39256L52.5904 9.69008H60.0791Z" fill="white"/>
<path d="M62.6332 14.5041L62.1421 15H67.0528L70.5107 11.6322L68.0554 9.15289L62.6332 14.5041ZM79.5135 14.4628L78.2244 13.1405L73.764 8.63636L77.3446 5.04132L77.4265 4.95868V0L76.9354 0.495868L71.3086 6.15702L65.6614 0.516528L65.1499 0.0206609V4.97934L68.9352 8.71901L75.0325 14.9174H79.9636L79.5135 14.4628Z" fill="white"/>
<path d="M85.9726 6.05372C86.1567 5.70248 86.3818 5.39256 86.6683 5.10331C87.3435 4.40083 88.2642 4.02893 89.2463 4.02893C90.208 4.02893 91.1287 4.40083 91.8244 5.10331C92.1723 5.45455 92.4382 5.84711 92.6224 6.30165L92.6838 6.46694H96.3668L96.3054 6.13636C95.9575 4.52479 95.0573 3.07851 93.7887 2.04545C92.5201 0.991735 90.9037 0.413223 89.2463 0.413223C86.8729 0.413223 84.6426 1.59091 83.2922 3.55372L83.1694 3.73967L85.8089 6.40496L85.9726 6.05372ZM92.6224 9.13223C92.4382 9.56612 92.1723 9.97934 91.8244 10.3099C91.538 10.5992 91.2311 10.8264 90.8832 11.0124C90.7605 11.0744 90.6581 11.1157 90.5354 11.157C90.1875 11.3017 89.8397 11.3636 89.451 11.3843C89.2873 11.405 89.1031 11.405 88.9394 11.3843C88.0801 11.3223 87.2821 10.9298 86.6683 10.3099C86.0544 9.69008 85.6657 8.8843 85.6043 8.01653L85.5838 7.91322L82.5761 4.85537L82.4328 5.28926C82.1464 6.05372 82.0236 6.88017 82.0236 7.70661C82.0236 9.66942 82.7602 11.4876 84.1311 12.8719C85.502 14.2562 87.3026 15 89.2463 15C90.2285 15 91.1697 14.814 92.0495 14.4421C92.2336 14.3595 92.3973 14.2769 92.561 14.1942C93.4818 13.719 94.3207 13.0165 94.9549 12.1901C95.6097 11.343 96.0803 10.3306 96.3054 9.29752L96.3668 8.94628H92.6838L92.6224 9.13223Z" fill="white"/>
<path d="M110.418 2.89256C109.089 1.54959 107.329 0.805785 105.446 0.805785C103.871 0.805785 102.377 1.32231 101.129 2.29339L100.884 2.5L103.359 5L103.564 4.87603C104.116 4.52479 104.771 4.33884 105.446 4.33884C106.388 4.33884 107.288 4.71074 107.943 5.39256C108.618 6.05372 108.986 6.96281 108.986 7.91322C108.986 8.59504 108.802 9.2562 108.454 9.81405L108.331 10.0207L110.807 12.5207L111.012 12.2727C111.973 11.0124 112.485 9.50413 112.485 7.91322C112.485 6.0124 111.748 4.23554 110.418 2.89256ZM107.329 10.9298C106.776 11.3017 106.122 11.4876 105.446 11.4876C104.505 11.4876 103.605 11.1157 102.95 10.4339C102.275 9.77273 101.907 8.86364 101.907 7.91322C101.907 7.2314 102.091 6.57025 102.459 6.0124L102.582 5.80578L100.086 3.30578L99.9015 3.55372C98.9194 4.81405 98.4284 6.32231 98.4284 7.91322C98.4284 9.81405 99.1445 11.5909 100.474 12.9339C101.804 14.2769 103.564 15 105.446 15C107.022 15 108.516 14.5041 109.764 13.5124L110.009 13.3264L107.533 10.8058L107.329 10.9298Z" fill="white"/>
<path d="M114.533 0.805785V2.56198L118.012 6.07438V0.805785H114.533ZM114.533 15H118.012V7.68595L114.533 4.17355V15Z" fill="white"/>
<path d="M120.048 15H123.527V10.3719L120.048 6.83884V15ZM129.522 3.92562V9.83471L120.58 0.805785H120.048V5.24793L123.527 8.76033L125.736 11.0124L129.583 14.876L129.706 15H133V0.413223L129.522 3.92562Z" fill="white"/>
</svg>
